<svg width="35" height="35" viewBox="0 0 35 35" fill="none" xmlns="http://www.w3.org/2000/svg">
<path d="M20.4167 13.5615V17.7907H24.2083C24.5 17.7907 24.6458 18.0824 24.6458 18.374L24.0625 21.1449C24.0625 21.2907 23.7708 21.4365 23.625 21.4365H20.4167V32.0824H16.0417V21.5824H13.5625C13.2708 21.5824 13.125 21.4365 13.125 21.1449V18.374C13.125 18.0824 13.2708 17.9365 13.5625 17.9365H16.0417V13.124C16.0417 10.6449 17.9375 8.74902 20.4167 8.74902H24.3542C24.6458 8.74902 24.7917 8.89486 24.7917 9.18652V12.6865C24.7917 12.9782 24.6458 13.124 24.3542 13.124H20.8542C20.5625 13.124 20.4167 13.2699 20.4167 13.5615Z" stroke="#F5F5F5" stroke-width="1.5" stroke-miterlimit="10" stroke-linecap="round"/>
<path d="M21.8753 32.0827H13.1253C5.83366 32.0827 2.91699 29.166 2.91699 21.8743V13.1243C2.91699 5.83268 5.83366 2.91602 13.1253 2.91602H21.8753C29.167 2.91602 32.0837 5.83268 32.0837 13.1243V21.8743C32.0837 29.166 29.167 32.0827 21.8753 32.0827Z" stroke="#F5F5F5" stroke-width="1.5" stroke-linecap="round" stroke-linejoin="round"/>
</svg>
