<svg width="35" height="35" viewBox="0 0 35 35" fill="none" xmlns="http://www.w3.org/2000/svg">
<path d="M10.9385 14.5835V24.7918" stroke="#F5F5F5" stroke-width="1.5" stroke-linecap="round" stroke-linejoin="round"/>
<path d="M16.7725 18.9585V24.7918M16.7725 18.9585C16.7725 16.5422 18.7311 14.5835 21.1475 14.5835C23.5638 14.5835 25.5225 16.5422 25.5225 18.9585V24.7918M16.7725 18.9585V14.5835" stroke="#F5F5F5" stroke-width="1.5" stroke-linecap="round" stroke-linejoin="round"/>
<path d="M10.9497 10.2085H10.9375" stroke="#F5F5F5" stroke-width="2.41667" stroke-linecap="round" stroke-linejoin="round"/>
<path d="M3.64551 18.2293C3.64551 11.3547 3.64551 7.91736 5.78118 5.78167C7.91687 3.646 11.3542 3.646 18.2288 3.646C25.1034 3.646 28.5408 3.646 30.6766 5.78167C32.8122 7.91736 32.8122 11.3547 32.8122 18.2293C32.8122 25.1039 32.8122 28.5413 30.6766 30.677C28.5408 32.8127 25.1034 32.8127 18.2288 32.8127C11.3542 32.8127 7.91687 32.8127 5.78118 30.677C3.64551 28.5413 3.64551 25.1039 3.64551 18.2293Z" stroke="#F5F5F5" stroke-width="1.5" stroke-linejoin="round"/>
</svg>
