<svg width="120" height="86" viewBox="0 0 120 86" fill="none" xmlns="http://www.w3.org/2000/svg">
<path d="M46.673 85.9821C34.5626 86.3085 23.0229 82.1504 14.2219 74.2549C5.40237 66.3783 0.363454 55.6991 0.0189865 44.224C-0.326905 32.749 4.06293 21.8149 12.3942 13.4756C20.7084 5.1189 31.9776 0.344383 44.0881 0.0179902C56.2 -0.309752 67.7383 3.84974 76.5407 11.7439C85.3602 19.638 90.3977 30.2997 90.7436 41.7747C91.0881 53.2511 86.6997 64.1839 78.367 72.5245C70.0542 80.8799 58.7835 85.6544 46.673 85.9821ZM44.1664 2.59407C32.7805 2.90158 22.1916 7.3996 14.3713 15.2452C6.55107 23.0894 2.41318 33.3627 2.73772 44.1512C3.06226 54.9397 7.80937 64.9716 16.0894 72.3829C24.368 79.7928 35.2102 83.7122 46.5962 83.4047C57.9821 83.0972 68.5695 78.5992 76.3912 70.755C84.2115 62.9094 88.348 52.6374 88.0234 41.8489C87.6989 31.0604 82.9518 21.0272 74.6732 13.6173C66.3931 6.20732 55.5523 2.28656 44.1664 2.59407Z" fill="white"/>
<path d="M77.5546 70.644C77.7938 71.0972 77.9133 71.5504 77.9133 72.0035C77.9133 72.8532 77.3753 73.2767 76.302 73.2767H58.8224C57.2082 73.2767 56.1321 72.7103 55.5941 71.5773L44.6565 47.9637C44.4174 47.6265 44.1782 47.4566 43.9391 47.4566C43.643 47.4566 43.2246 47.7682 42.6865 48.3899L36.321 56.1209C35.9637 56.5174 35.7858 57.1392 35.7858 57.9875V70.8113C35.7858 71.7176 35.5466 72.3569 35.0683 72.7265C34.5901 73.0933 33.8414 73.2767 32.825 73.2767H17.8563C16.9596 73.2767 16.3319 73.1081 15.9717 72.7696C15.6145 72.4284 15.4365 71.8889 15.4365 71.1511V12.2061C15.4365 11.5844 15.5846 11.1042 15.8806 10.7657C16.1795 10.4245 16.5995 10.2532 17.1389 10.2532H34.1687C35.2463 10.2532 35.7858 10.8493 35.7858 12.0389V33.5269C35.7858 34.2067 35.9338 34.5465 36.2299 34.5465C36.469 34.5465 36.7679 34.3496 37.1295 33.9531L53.6241 12.0389C54.1593 11.3591 54.6802 10.8925 55.1898 10.6362C55.698 10.3813 56.4609 10.2532 57.4787 10.2532H71.1037C71.8211 10.2532 72.3876 10.3813 72.8061 10.6362C73.2231 10.8925 73.4324 11.2458 73.4324 11.699C73.4324 12.0955 73.2815 12.4354 72.9826 12.7187L58.2815 29.7882C57.863 30.2414 57.6552 30.7242 57.6552 31.2341C57.6552 31.6306 57.7748 32.0541 58.0139 32.5073L77.5546 70.644Z" fill="white"/>
<path d="M95.1851 13.8979C94.778 13.8979 94.3723 13.9074 93.9666 13.9263C93.5609 13.9452 93.1567 13.9735 92.7524 14.0112C92.3482 14.049 91.9454 14.0962 91.5425 14.1529C91.1411 14.2095 90.7411 14.2742 90.3426 14.3498C89.9455 14.4253 89.5483 14.5089 89.1555 14.602C88.7612 14.6964 88.3697 14.7989 87.9811 14.9108C87.5925 15.0214 87.2068 15.1428 86.8239 15.2723C86.4424 15.4018 86.0638 15.5407 85.688 15.6877C85.3122 15.8347 84.9421 15.9912 84.5749 16.1557C84.2076 16.3203 83.8447 16.4929 83.486 16.6736C83.1287 16.8557 82.7757 17.0459 82.4269 17.2428C82.0782 17.4411 81.7352 17.6474 81.3978 17.8605C81.0605 18.075 80.7288 18.2962 80.4014 18.5255C80.0754 18.7547 79.7552 18.9908 79.442 19.2349C79.1275 19.479 78.82 19.7299 78.5197 19.9888C78.2193 20.2478 77.9247 20.5121 77.6371 20.7846C77.3496 21.057 77.0706 21.3349 76.7973 21.6208C76.5254 21.9054 76.2593 22.1967 76.0016 22.4948C75.744 22.7915 75.4949 23.095 75.2529 23.4038C75.0109 23.7127 74.7775 24.0283 74.5512 24.3479C74.3263 24.6676 74.1085 24.9926 73.8992 25.3231C73.6914 25.6535 73.4907 25.988 73.3 26.3265C73.1078 26.6664 72.9256 27.0103 72.7519 27.3583C72.5783 27.7063 72.4132 28.0569 72.258 28.413C72.1029 28.7691 71.9563 29.1278 71.8196 29.4893C71.683 29.8521 71.5563 30.2176 71.4381 30.5858C71.32 30.954 71.2118 31.3249 71.1136 31.6972C71.014 32.0708 70.9257 32.4457 70.846 32.8234C70.7663 33.201 70.698 33.58 70.6382 33.9603C70.5784 34.342 70.5286 34.7237 70.4887 35.1068C70.4489 35.4898 70.419 35.8729 70.399 36.2572C70.3791 36.6416 70.3691 37.026 70.3691 37.4104C70.3691 37.7961 70.3791 38.1805 70.399 38.5649C70.419 38.9493 70.4489 39.3323 70.4887 39.7154C70.5286 40.0984 70.5784 40.4801 70.6382 40.8605C70.698 41.2422 70.7663 41.6211 70.846 41.9974C70.9257 42.3751 71.014 42.7514 71.1136 43.1236C71.2118 43.4972 71.32 43.8681 71.4381 44.2363C71.5563 44.6045 71.683 44.9701 71.8196 45.3329C71.9563 45.6943 72.1029 46.0531 72.258 46.4091C72.4132 46.7639 72.5783 47.1159 72.7519 47.4639C72.9256 47.8118 73.1078 48.1558 73.3 48.4943C73.4907 48.8342 73.6914 49.1687 73.8992 49.4991C74.1085 49.8295 74.3263 50.1546 74.5512 50.4742C74.7775 50.7939 75.0109 51.1081 75.2529 51.417C75.4949 51.7272 75.744 52.0307 76.0016 52.3274C76.2593 52.6255 76.5254 52.9168 76.7973 53.2014C77.0706 53.486 77.3496 53.7651 77.6371 54.0376C77.9247 54.3087 78.2193 54.5744 78.5197 54.8333C78.82 55.0909 79.1275 55.3432 79.442 55.5873C79.7552 55.8314 80.0754 56.0674 80.4014 56.2967C80.7288 56.526 81.0605 56.7472 81.3978 56.9616C81.7352 57.1747 82.0782 57.3811 82.4269 57.5794C82.7757 57.7763 83.1287 57.9664 83.486 58.1472C83.8447 58.3292 84.2076 58.5019 84.5749 58.6664C84.9421 58.831 85.3122 58.9874 85.688 59.1344C86.0638 59.2815 86.4424 59.4204 86.8239 59.5499C87.2068 59.6793 87.5925 59.7994 87.9811 59.9113C88.3697 60.0233 88.7612 60.1258 89.1555 60.2188C89.5483 60.3132 89.9455 60.3969 90.3426 60.4724C90.7411 60.5479 91.1411 60.6127 91.5425 60.6693C91.9454 60.7259 92.3482 60.7732 92.7524 60.8109C93.1567 60.8487 93.5609 60.877 93.9666 60.8959C94.3723 60.9148 94.778 60.9242 95.1851 60.9242C95.5907 60.9242 95.9964 60.9148 96.4021 60.8959C96.8078 60.877 97.212 60.8487 97.6163 60.8109C98.0205 60.7732 98.4233 60.7259 98.8262 60.6693C99.2276 60.6127 99.6276 60.5479 100.026 60.4724C100.423 60.3969 100.82 60.3132 101.213 60.2188C101.608 60.1258 101.999 60.0233 102.388 59.9113C102.776 59.7994 103.162 59.6793 103.545 59.5499C103.926 59.4204 104.305 59.2815 104.681 59.1344C105.056 58.9874 105.427 58.831 105.794 58.6664C106.161 58.5019 106.524 58.3292 106.883 58.1472C107.24 57.9664 107.593 57.7763 107.942 57.5794C108.291 57.3811 108.634 57.1747 108.971 56.9616C109.308 56.7472 109.64 56.526 109.967 56.2967C110.293 56.0674 110.614 55.8314 110.927 55.5873C111.241 55.3432 111.549 55.0909 111.849 54.8333C112.149 54.5744 112.444 54.3087 112.732 54.0376C113.019 53.7651 113.298 53.486 113.571 53.2014C113.843 52.9168 114.109 52.6255 114.367 52.3274C114.625 52.0307 114.874 51.7272 115.116 51.417C115.358 51.1081 115.591 50.7939 115.818 50.4742C116.042 50.1546 116.26 49.8295 116.469 49.4991C116.677 49.1687 116.878 48.8342 117.069 48.4943C117.261 48.1558 117.443 47.8118 117.617 47.4639C117.79 47.1159 117.956 46.7639 118.111 46.4091C118.266 46.0531 118.412 45.6943 118.549 45.3329C118.686 44.9701 118.812 44.6045 118.931 44.2363C119.049 43.8681 119.157 43.4972 119.255 43.1236C119.355 42.7514 119.443 42.3751 119.523 41.9974C119.602 41.6211 119.671 41.2422 119.731 40.8605C119.79 40.4801 119.84 40.0984 119.88 39.7154C119.92 39.3323 119.95 38.9493 119.97 38.5649C119.99 38.1805 120 37.7961 120 37.4104C120 37.026 119.99 36.6416 119.97 36.2572C119.95 35.8729 119.92 35.4898 119.88 35.1068C119.84 34.7237 119.79 34.342 119.731 33.9603C119.671 33.58 119.602 33.201 119.523 32.8234C119.443 32.4457 119.355 32.0708 119.255 31.6972C119.157 31.3249 119.049 30.954 118.931 30.5858C118.812 30.2176 118.686 29.8521 118.549 29.4893C118.412 29.1278 118.266 28.7691 118.111 28.413C117.956 28.0569 117.79 27.7063 117.617 27.3583C117.443 27.0103 117.261 26.6664 117.069 26.3265C116.878 25.988 116.677 25.6535 116.469 25.3231C116.26 24.9926 116.042 24.6676 115.818 24.3479C115.591 24.0283 115.358 23.7127 115.116 23.4038C114.874 23.095 114.625 22.7915 114.367 22.4948C114.109 22.1967 113.843 21.9054 113.571 21.6208C113.298 21.3349 113.019 21.057 112.732 20.7846C112.444 20.5121 112.149 20.2478 111.849 19.9888C111.549 19.7299 111.241 19.479 110.927 19.2349C110.614 18.9908 110.293 18.7547 109.967 18.5255C109.64 18.2962 109.308 18.075 108.971 17.8605C108.634 17.6474 108.291 17.4411 107.942 17.2428C107.593 17.0459 107.24 16.8557 106.883 16.6736C106.524 16.4929 106.161 16.3203 105.794 16.1557C105.427 15.9912 105.056 15.8347 104.681 15.6877C104.305 15.5407 103.926 15.4018 103.545 15.2723C103.162 15.1428 102.776 15.0214 102.388 14.9108C101.999 14.7989 101.608 14.6964 101.213 14.602C100.82 14.5089 100.423 14.4253 100.026 14.3498C99.6276 14.2742 99.2276 14.2095 98.8262 14.1529C98.4233 14.0962 98.0205 14.049 97.6163 14.0112C97.212 13.9735 96.8078 13.9452 96.4021 13.9263C95.9964 13.9074 95.5907 13.8979 95.1851 13.8979Z" fill="#FFDE59"/>
<path d="M85.592 27.4827C85.7087 27.4827 85.7685 27.5461 85.7685 27.6715V35.5805C85.7685 35.6385 85.7414 35.687 85.6888 35.7261C85.6389 35.7625 85.5749 35.7801 85.4952 35.7801H83.8782C83.8056 35.7801 83.7486 35.7693 83.7074 35.7477C83.6647 35.7261 83.6163 35.6816 83.5593 35.6128L80.3139 31.4425C80.2826 31.4034 80.2541 31.3872 80.2285 31.394C80.2057 31.4021 80.1944 31.425 80.1944 31.4641V35.5319C80.2015 35.6223 80.1844 35.687 80.1431 35.7261C80.1004 35.7625 80.025 35.7801 79.9154 35.7801H78.3097C78.1119 35.7801 78.0137 35.7072 78.0137 35.5589V27.7416C78.0137 27.569 78.0991 27.4827 78.2699 27.4827H80.1944C80.2968 27.4827 80.3723 27.4962 80.4221 27.5204C80.4748 27.5461 80.5331 27.6 80.5986 27.6823L83.4284 31.421C83.4768 31.4857 83.5209 31.5181 83.5593 31.5181C83.5963 31.5181 83.6163 31.4695 83.6163 31.3724V27.7146C83.6163 27.5609 83.7031 27.4827 83.8782 27.4827H85.592Z" fill="black"/>
<path d="M90.9983 35.8931C90.14 35.8931 89.3898 35.7205 88.7493 35.3752C88.1073 35.0272 87.612 34.5336 87.2632 33.897C86.9174 33.2577 86.7451 32.5092 86.7451 31.6527C86.7451 30.7976 86.9188 30.0477 87.2689 29.403C87.6219 28.7556 88.1187 28.2566 88.7607 27.9032C89.4012 27.5472 90.1471 27.3691 90.9983 27.3691C91.8367 27.3691 92.5755 27.5472 93.2131 27.9032C93.8508 28.2566 94.3433 28.7556 94.6935 29.403C95.0465 30.0477 95.223 30.7976 95.223 31.6527C95.223 32.5024 95.0479 33.2483 94.6992 33.8916C94.3533 34.5323 93.8622 35.0272 93.2245 35.3752C92.5868 35.7205 91.8438 35.8931 90.9983 35.8931ZM90.9983 34.1452C91.3428 34.1452 91.6189 34.0669 91.8239 33.9078C92.0289 33.7459 92.1769 33.487 92.268 33.1309C92.3619 32.7722 92.4103 32.2893 92.4103 31.6851C92.4103 30.7612 92.2993 30.0976 92.0801 29.6944C91.8595 29.2924 91.4993 29.0901 90.9983 29.0901C90.4859 29.0901 90.1172 29.2924 89.8937 29.6944C89.6688 30.0976 89.5578 30.7612 89.5578 31.6851C89.5578 32.2893 89.6033 32.7722 89.6944 33.1309C89.7884 33.487 89.9407 33.7459 90.1499 33.9078C90.3578 34.0669 90.641 34.1452 90.9983 34.1452Z" fill="black"/>
<path d="M108.004 27.4827C108.12 27.4827 108.212 27.5123 108.277 27.569C108.345 27.6229 108.379 27.6985 108.379 27.7956C108.379 27.8252 108.371 27.8698 108.357 27.9304L105.96 35.4995C105.921 35.5966 105.87 35.6695 105.806 35.7153C105.745 35.7585 105.655 35.7801 105.538 35.7801H103.904C103.676 35.7801 103.536 35.687 103.483 35.4995L102.253 31.5612C102.23 31.4682 102.203 31.421 102.173 31.421C102.151 31.421 102.114 31.4776 102.065 31.5882L100.852 35.4995C100.818 35.5966 100.767 35.6695 100.699 35.7153C100.633 35.7585 100.542 35.7801 100.425 35.7801H98.7344C98.6162 35.7801 98.5251 35.7585 98.4611 35.7153C98.3999 35.6695 98.35 35.5966 98.313 35.4995L95.9046 27.9304C95.889 27.8698 95.8818 27.8252 95.8818 27.7956C95.8818 27.6985 95.9132 27.6229 95.9786 27.569C96.047 27.5123 96.1395 27.4827 96.2576 27.4827H98.2049C98.3216 27.4827 98.407 27.5029 98.4611 27.542C98.518 27.5784 98.5593 27.6364 98.5863 27.7146L99.8333 31.8633C99.856 31.9537 99.8845 31.9982 99.9187 31.9982C99.9414 31.9982 99.9599 31.9699 99.9756 31.9119L101.217 27.7146C101.254 27.5609 101.379 27.4827 101.593 27.4827H103.244C103.36 27.4827 103.446 27.5029 103.5 27.542C103.557 27.5784 103.598 27.6364 103.625 27.7146L104.923 31.9659C104.938 32.0131 104.96 32.04 104.992 32.0468C105.022 32.0549 105.043 32.0346 105.054 31.9874L106.256 27.7146C106.293 27.5609 106.418 27.4827 106.632 27.4827H108.004Z" fill="black"/>
<path d="M77.9404 38.9247C77.9404 38.8492 77.9646 38.7885 78.0144 38.7413C78.0671 38.6914 78.1411 38.6658 78.2365 38.6658H85.2967C85.3878 38.6658 85.4575 38.6914 85.5073 38.7413C85.56 38.7885 85.587 38.8492 85.587 38.9247V40.2519C85.587 40.3962 85.5016 40.4677 85.3308 40.4677H83.2413C83.1459 40.4677 83.0989 40.5041 83.0989 40.5756V46.715C83.0989 46.7986 83.0776 46.8607 83.0363 46.9038C82.9978 46.9443 82.9452 46.9632 82.8769 46.9632H80.6335C80.4884 46.9632 80.4172 46.8903 80.4172 46.742V40.6241C80.4172 40.5203 80.3745 40.4677 80.2919 40.4677H78.2137C78.0315 40.4677 77.9404 40.3962 77.9404 40.2519V38.9247Z" fill="black"/>
<path d="M88.9986 38.6658C89.1381 38.6658 89.2092 38.744 89.2092 38.8978V46.6395C89.2092 46.7582 89.1765 46.8431 89.1124 46.893C89.0512 46.9402 88.9544 46.9632 88.8221 46.9632H86.852C86.7339 46.9632 86.6499 46.9416 86.6015 46.8984C86.556 46.8526 86.5332 46.7797 86.5332 46.6826V38.9247C86.5332 38.8425 86.5517 38.7791 86.5901 38.7359C86.6314 38.69 86.6869 38.6658 86.7553 38.6658H88.9986Z" fill="black"/>
<path d="M94.3693 38.5522C95.0212 38.5522 95.6119 38.6628 96.14 38.8813C96.6667 39.1012 97.0994 39.4046 97.4382 39.7931C97.7755 40.1815 97.9961 40.6266 98.0986 41.1256C98.1214 41.216 98.1328 41.2861 98.1328 41.336C98.1328 41.4048 98.1186 41.4493 98.0929 41.4709C98.0659 41.4925 98.0161 41.5073 97.9449 41.5141L95.8781 41.6381C95.8012 41.6381 95.75 41.626 95.7244 41.6004C95.7016 41.5761 95.6788 41.5181 95.656 41.4277C95.5834 41.069 95.4525 40.7857 95.2632 40.5807C95.0767 40.3757 94.8034 40.2732 94.4433 40.2732C93.9764 40.2732 93.6177 40.4674 93.3672 40.8559C93.1167 41.2443 92.9914 41.8742 92.9914 42.7441C92.9914 43.6478 93.1067 44.2898 93.3387 44.6701C93.5693 45.0518 93.9323 45.242 94.4262 45.242C94.8433 45.242 95.2005 45.1422 95.4966 44.9398C95.7927 44.7389 96.0389 44.403 96.2368 43.931C96.2596 43.8663 96.325 43.8339 96.4361 43.8339C96.4887 43.8339 96.5329 43.8379 96.567 43.8447L98.0417 44.1198C98.1584 44.1603 98.2182 44.2466 98.2182 44.3788C98.2182 44.5878 98.0815 44.9115 97.8082 45.3499C97.5378 45.7855 97.1136 46.1834 96.5329 46.5421C95.955 46.8982 95.2262 47.0762 94.3465 47.0762C93.5109 47.0762 92.7779 46.8874 92.1487 46.5098C91.5224 46.1321 91.0356 45.6142 90.6911 44.956C90.3495 44.2951 90.1787 43.5426 90.1787 42.7009C90.1787 41.8674 90.3495 41.1364 90.6911 40.5106C91.0356 39.8848 91.5238 39.4033 92.1544 39.0648C92.7878 38.7235 93.5266 38.5522 94.3693 38.5522Z" fill="black"/>
<path d="M99.1387 38.9247C99.1387 38.7521 99.2127 38.6658 99.3607 38.6658H105.738C105.877 38.6658 105.948 38.744 105.948 38.8978L105.937 40.1979C105.937 40.4002 105.834 40.5 105.629 40.5H102.088C101.906 40.5 101.815 40.5702 101.815 40.7104V41.66C101.815 41.7355 101.833 41.7948 101.872 41.838C101.913 41.8785 101.966 41.8973 102.031 41.8973H104.155C104.317 41.8973 104.4 41.9715 104.4 42.1185V43.505C104.4 43.6345 104.328 43.6992 104.189 43.6992H102.008C101.951 43.6992 101.903 43.7141 101.866 43.7424C101.832 43.7721 101.815 43.8098 101.815 43.8557V44.9724C101.815 45.0345 101.823 45.0749 101.843 45.0965C101.866 45.1181 101.903 45.1289 101.957 45.1289H105.795C105.968 45.1289 106.056 45.199 106.056 45.3393V46.715C106.056 46.7905 106.031 46.8526 105.982 46.8984C105.937 46.9416 105.866 46.9632 105.772 46.9632H99.4575C99.3394 46.9632 99.2554 46.9416 99.207 46.8984C99.1614 46.8526 99.1387 46.7797 99.1387 46.6826V38.9247Z" fill="black"/>
<path d="M108.766 38.6658C109.702 38.6658 110.286 38.6698 110.514 38.6766C112.047 38.7278 113.207 39.1216 113.993 39.8581C114.781 40.5918 115.177 41.5709 115.177 42.7929C115.177 43.6129 114.997 44.3358 114.642 44.9617C114.289 45.5875 113.761 46.0784 113.059 46.4345C112.36 46.7878 111.507 46.9632 110.502 46.9632H107.399C107.281 46.9632 107.194 46.9389 107.137 46.8876C107.083 46.8337 107.058 46.7474 107.058 46.6287V38.9463C107.058 38.8425 107.08 38.771 107.126 38.7305C107.174 38.6874 107.258 38.6658 107.376 38.6658H108.766ZM109.853 40.4191C109.815 40.4191 109.785 40.4326 109.762 40.4569C109.742 40.4785 109.734 40.5189 109.734 40.5756V45.0372C109.734 45.106 109.745 45.1532 109.768 45.1775C109.793 45.199 109.838 45.2098 109.899 45.2098H109.984C110.761 45.2098 111.354 45.0183 111.761 44.6326C112.166 44.2482 112.37 43.6237 112.37 42.7605C112.37 42.0133 112.216 41.4576 111.909 41.0935C111.601 40.7266 111.151 40.5189 110.559 40.4677L109.853 40.4191Z" fill="black"/>
</svg>
