<svg width="35" height="35" viewBox="0 0 35 35" fill="none" xmlns="http://www.w3.org/2000/svg">
<path d="M21.8753 32.0841H13.1253C5.83366 32.0841 2.91699 29.1675 2.91699 21.8758V13.1258C2.91699 5.83415 5.83366 2.91748 13.1253 2.91748H21.8753C29.167 2.91748 32.0837 5.83415 32.0837 13.1258V21.8758C32.0837 29.1675 29.167 32.0841 21.8753 32.0841Z" stroke="#F5F5F5" stroke-width="1.5" stroke-linecap="round" stroke-linejoin="round"/>
<path d="M14.9072 25.7495C12.8038 25.7495 10.7632 25.153 9.06787 23.9914C8.78532 23.803 8.69114 23.4577 8.78532 23.1437C8.9109 22.8298 9.22484 22.6414 9.53879 22.7042C9.78994 22.7356 10.0411 22.767 10.2923 22.767C11.2027 22.767 12.0817 22.5786 12.898 22.2333C11.8934 21.731 11.0771 20.8519 10.7318 19.7217C10.669 19.502 10.7004 19.2822 10.826 19.0939C9.94691 18.2776 9.4446 17.1474 9.4446 15.923V15.8916C9.4446 15.6405 9.57018 15.4207 9.78994 15.2951C9.82134 15.2637 9.85273 15.2637 9.88412 15.2323C9.60157 14.6672 9.4446 14.008 9.4446 13.3801C9.4446 12.5952 9.63297 11.8731 10.0097 11.2452C10.1353 11.0569 10.3236 10.9313 10.5748 10.8999C10.7946 10.8685 11.0457 10.9941 11.1713 11.1511C12.6782 13.0033 14.8445 14.1963 17.1676 14.5103V14.4789C17.1676 12.1243 19.0827 10.2092 21.4373 10.2092C22.4733 10.2092 23.4465 10.586 24.2314 11.2766C24.5767 11.1511 24.9535 10.8999 25.3302 10.6801C25.5186 10.5546 25.7069 10.429 25.8953 10.3348C26.1151 10.2092 26.3976 10.2092 26.6488 10.3662C26.8999 10.5232 26.9941 10.7743 26.9627 11.0255C26.9313 11.2139 26.8685 11.6534 26.743 12.1243C26.8057 12.1243 26.8371 12.1243 26.8685 12.1243C27.1511 12.0615 27.4336 12.1871 27.5906 12.4382C27.7476 12.6894 27.7476 12.9719 27.5906 13.2231C27.1511 13.8824 26.4918 14.3219 25.8953 14.73C25.8325 14.7614 25.7697 14.8242 25.7383 14.8556C25.7383 14.887 25.7383 14.9184 25.7383 14.9498C25.7697 20.2241 21.6884 25.7495 14.9072 25.7495ZM12.2073 23.9286C13.055 24.1798 13.9654 24.3053 14.9072 24.3053C20.8094 24.3053 24.357 19.502 24.357 14.8556C24.357 14.73 24.357 14.6045 24.357 14.4789C24.3256 14.2277 24.4198 13.9766 24.6395 13.8196C24.7965 13.694 24.9849 13.5684 25.1418 13.4429C25.236 13.3801 25.3302 13.3173 25.4244 13.2545C25.2674 13.1917 25.1418 13.0347 25.0791 12.8778C25.0163 12.7208 25.0163 12.5324 25.0791 12.3754C24.7965 12.501 24.5139 12.5952 24.2314 12.658C24.0116 12.6894 23.7605 12.6266 23.6035 12.4382C23.0384 11.8417 22.3163 11.5278 21.5315 11.5278C19.9618 11.5278 18.6746 12.815 18.6746 14.3847C18.6746 14.5731 18.706 14.7928 18.7374 15.044C18.7688 15.2637 18.7374 15.4835 18.5804 15.6405C18.4234 15.7974 18.2351 15.8916 18.0153 15.8916C15.3468 15.766 12.8352 14.6672 10.9515 12.815C10.9201 12.9719 10.9201 13.1289 10.9201 13.2859C10.9201 14.2591 11.3911 15.1382 12.2073 15.6719C12.4585 15.8602 12.5841 16.1742 12.4899 16.4881C12.3957 16.8021 12.1131 16.9904 11.7992 16.9904C11.5794 16.9904 11.3283 16.959 11.1085 16.8962C11.4539 17.7753 12.2387 18.466 13.2119 18.6543C13.5259 18.7171 13.777 18.9997 13.777 19.345C13.777 19.6903 13.5573 19.9729 13.2433 20.0357C13.055 20.0985 12.8352 20.1299 12.6782 20.1613C13.2119 20.7892 13.9654 21.1659 14.8131 21.1659C15.127 21.1659 15.3782 21.3543 15.4723 21.6368C15.5665 21.9194 15.4723 22.2333 15.2212 22.4217C14.248 23.1751 13.2747 23.6774 12.2073 23.9286Z" fill="#F5F5F5"/>
</svg>
